<svg aria-hidden="true" style="position: absolute; width: 0; height: 0; overflow: hidden;" version="1.1" xmlns="http://www.w3.org/2000/svg" xmlns:xlink="http://www.w3.org/1999/xlink">
<defs>
<symbol id="icon-calendar" viewBox="0 0 29 32">
<path fill="#4a56e2" style="fill: var(--color1, #4a56e2)" d="M9.6 14.4h-3.2v3.2h3.2v-3.2zM16 14.4h-3.2v3.2h3.2v-3.2zM22.4 14.4h-3.2v3.2h3.2v-3.2zM25.6 3.2h-1.6v-3.2h-3.2v3.2h-12.8v-3.2h-3.2v3.2h-1.6c-1.776 0-3.184 1.44-3.184 3.2l-0.016 22.4c0 1.76 1.424 3.2 3.2 3.2h22.4c1.76 0 3.2-1.44 3.2-3.2v-22.4c0-1.76-1.44-3.2-3.2-3.2zM25.6 28.8h-22.4v-17.6h22.4v17.6z"></path>
</symbol>
<symbol id="icon-close" viewBox="0 0 32 32">
<path stroke-linejoin="miter" stroke-linecap="butt" stroke-miterlimit="4" stroke-width="1.7778" d="M1.778 1.778l28.444 28.444"></path>
<path stroke-linejoin="miter" stroke-linecap="butt" stroke-miterlimit="4" stroke-width="1.7778" d="M1.778 30.222l28.444-28.444"></path>
</symbol>
<symbol id="icon-minus" viewBox="0 0 32 32">
<path fill="none" stroke="#fff" style="stroke: var(--color2, #fff)" stroke-linejoin="miter" stroke-linecap="butt" stroke-miterlimit="4" stroke-width="3.2" d="M0 16h32"></path>
</symbol>
<symbol id="icon-plus" viewBox="0 0 32 32">
<path fill="none" stroke="#fff" style="stroke: var(--color2, #fff)" stroke-linejoin="miter" stroke-linecap="butt" stroke-miterlimit="4" stroke-width="3.2" d="M16 0v32"></path>
<path fill="none" stroke="#fff" style="stroke: var(--color2, #fff)" stroke-linejoin="miter" stroke-linecap="butt" stroke-miterlimit="4" stroke-width="3.2" d="M0 16h32"></path>
</symbol>
<symbol id="icon-selectArrow" viewBox="0 0 32 32">
<path stroke-linejoin="miter" stroke-linecap="butt" stroke-miterlimit="4" stroke-width="1.6" d="M1.6 8.8l14.4 14.4 14.4-14.4"></path>
</symbol>
</defs>
</svg>
